<svg width="114" height="114" viewBox="0 0 114 114" fill="none" xmlns="http://www.w3.org/2000/svg">
<path d="M3.611 54.7026L9.00132 29.2163H0L1.727 21H31.0336L29.3066 29.2163H20.253L14.8626 54.7026H3.611Z" fill="black"/>
<path d="M33.7222 92.0228C30.4776 92.0228 27.6341 91.5343 25.1919 90.5575C22.7846 89.5457 20.9006 88.0804 19.5399 86.1615C18.1793 84.2077 17.4989 81.8178 17.4989 78.9918C17.4989 77.666 17.6559 76.253 17.9699 74.7528C19.191 69.031 21.6158 64.6874 25.2443 61.7218C28.8727 58.7563 34.1409 57.2735 41.0489 57.2735C43.1073 57.2735 44.939 57.4305 46.5439 57.7445C48.1837 58.0585 49.7013 58.5121 51.0969 59.1052L49.0036 68.8915C47.608 68.1588 46.2125 67.6355 44.8169 67.3215C43.4562 66.9726 41.7816 66.7982 39.7929 66.7982C36.9669 66.7982 34.6817 67.4087 32.9372 68.6298C31.1928 69.816 30.024 71.857 29.4309 74.7528C29.3263 75.311 29.239 75.8344 29.1693 76.3228C29.0995 76.8113 29.0646 77.2648 29.0646 77.6835C29.0646 79.4628 29.6403 80.7188 30.7916 81.4515C31.9778 82.1492 33.8967 82.4981 36.5482 82.4981C38.2578 82.4981 39.9325 82.3411 41.5722 82.0271C43.2469 81.6782 44.939 81.1549 46.6486 80.4571L44.5552 90.2958C42.9155 90.854 41.2233 91.2727 39.4789 91.5518C37.7694 91.8658 35.8505 92.0228 33.7222 92.0228Z" fill="black"/>
<path d="M84.5846 54.7026L89.2553 32.5853H101.207C103.313 32.5853 104.939 33.1462 106.084 34.2681C107.251 35.39 107.835 36.8668 107.835 38.6985C107.835 39.3167 107.767 39.9692 107.629 40.6561C107.332 42.1443 106.713 43.4608 105.775 44.6056C104.836 45.7275 103.657 46.6204 102.237 47.2844C102.443 47.4676 102.604 47.6965 102.718 47.9713C102.855 48.2231 102.958 48.4979 103.027 48.7955L104.367 54.7026H96.6735L95.4715 49.5854C95.4028 49.2649 95.2884 49.0359 95.1281 48.8986C94.9678 48.7383 94.6931 48.6582 94.3038 48.6582H93.2392L91.9685 54.7026H84.5846ZM94.4412 42.9571H97.1544C98.0931 42.9571 98.78 42.7625 99.215 42.3733C99.65 41.984 99.9476 41.4116 100.108 40.6561C100.177 40.3126 100.211 40.0035 100.211 39.7288C100.211 39.248 100.062 38.8931 99.7645 38.6641C99.4897 38.4352 99.0089 38.3207 98.322 38.3207H95.4372L94.4412 42.9571Z" fill="black"/>
<path d="M65.4675 54.7026L70.1382 32.5853H87.3444L86.2111 38.0459H76.3888L75.7706 40.8621H84.3222L83.1545 46.4602H74.6029L73.9847 49.242H83.807L82.6737 54.7026H65.4675Z" fill="black"/>
<path d="M41.7891 54.7026L46.4598 32.5853H52.6761L57.7933 42.7854L59.9569 32.5853H67.3408L62.6701 54.7026H56.3852L51.3023 44.5369L49.173 54.7026H41.7891Z" fill="black"/>
<path d="M28.3172 55.0461C26.5314 55.0461 24.9744 54.7255 23.6465 54.0845C22.3185 53.4434 21.2768 52.5504 20.5212 51.4056C19.7885 50.238 19.4222 48.8871 19.4222 47.3531C19.4222 47.0097 19.4451 46.6662 19.4909 46.3228C19.5367 45.9793 19.5939 45.6245 19.6626 45.2581L22.3414 32.5853H29.7253L27.0465 45.2238C27.0007 45.4985 26.9549 45.7618 26.9091 46.0137C26.8862 46.2426 26.8748 46.4602 26.8748 46.6662C26.8748 47.4447 27.0923 47.9942 27.5273 48.3147C27.9852 48.6353 28.695 48.7955 29.6566 48.7955C30.8472 48.7955 31.7631 48.5322 32.4041 48.0056C33.0452 47.4561 33.5031 46.5288 33.7779 45.2238L36.4567 32.5853H43.8406L40.9901 46.0824C40.3719 48.9901 38.9523 51.211 36.7314 52.7451C34.5334 54.2791 31.7287 55.0461 28.3172 55.0461Z" fill="black"/>
<path d="M102.025 80.8039C99.8957 80.8039 98.0297 80.4833 96.427 79.8422C94.8472 79.1783 93.6108 78.2166 92.7179 76.9574C91.8249 75.6752 91.3784 74.1068 91.3784 72.2523C91.3784 71.3822 91.4815 70.455 91.6875 69.4704C92.4889 65.7155 94.0802 62.865 96.4613 60.9189C98.8425 58.9727 102.3 57.9996 106.833 57.9996C108.184 57.9996 109.386 58.1027 110.439 58.3087C111.515 58.5148 112.511 58.8124 113.427 59.2017L112.053 65.6239C111.138 65.1431 110.222 64.7997 109.306 64.5936C108.413 64.3647 107.314 64.2502 106.009 64.2502C104.154 64.2502 102.655 64.6509 101.51 65.4522C100.365 66.2307 99.598 67.5701 99.2088 69.4704C99.1401 69.8368 99.0829 70.1802 99.0371 70.5007C98.9913 70.8213 98.9684 71.1189 98.9684 71.3937C98.9684 72.5614 99.3462 73.3856 100.102 73.8664C100.88 74.3243 102.139 74.5533 103.88 74.5533C105.001 74.5533 106.1 74.4503 107.177 74.2442C108.276 74.0152 109.386 73.6718 110.508 73.2139L109.134 79.6705C108.058 80.0368 106.948 80.3116 105.803 80.4948C104.681 80.7008 103.422 80.8039 102.025 80.8039Z" fill="black"/>
<path d="M73.1604 80.4604L77.8312 58.343H85.2151L81.712 74.828H91.1909L90.0232 80.4604H73.1604Z" fill="black"/>
<path d="M47.3764 80.4604L60.53 58.343H68.2573L72.1038 80.4604H64.7199L63.93 76.0644H57.9199L55.3098 80.4604H47.3764ZM59.9118 70.9128H64.0674L63.1058 65.5552L59.9118 70.9128Z" fill="black"/>
</svg>
